<svg id="Capa_1" enable-background="new 0 0 512 512" height="512" viewBox="0 0 512 512" width="512" xmlns="http://www.w3.org/2000/svg"><g><g><g><g><path d="m30.281 98.836h451.439v403.118h-451.439z" fill="#f1f1f4"/><path d="m255.642 98.836h226.078v403.118h-226.078z" fill="#e2dff4"/></g><g><path d="m505.736 72.155-32.066-63.884c-2.545-5.07-7.733-8.271-13.406-8.271h-406.712c-5.547 0-10.641 3.061-13.244 7.959l-34.294 64.508s-5.927 15.236-5.927 23.77c0 27.903 22.915 50.523 51.183 50.523 28.267 0 51.183-22.62 51.183-50.523 0 27.903 22.915 50.523 51.183 50.523 28.267 0 51.183-22.62 51.183-50.523 0 27.903 22.915 50.523 51.183 50.523s51.183-22.62 51.183-50.523c0 27.903 22.915 50.523 51.183 50.523s51.183-22.62 51.183-50.523c0 27.903 22.915 50.523 51.183 50.523 28.267 0 51.183-22.62 51.183-50.523-.003-8.72-2.241-16.924-6.181-24.082z" fill="#de6d6e"/><path d="m505.736 72.155-32.066-63.884c-2.545-5.07-7.733-8.271-13.406-8.271h-204.622v146.751c.12.001.238.009.358.009 28.268 0 51.183-22.62 51.183-50.523 0 27.903 22.915 50.523 51.183 50.523s51.183-22.62 51.183-50.523c0 27.903 22.915 50.523 51.183 50.523 28.267 0 51.183-22.62 51.183-50.523-.001-8.72-2.239-16.924-6.179-24.082z" fill="#c43d53"/></g></g><g><path d="m497 512h-482c-8.284 0-15-6.716-15-15.001 0-7.645 6.197-13.843 13.842-13.843h484.317c7.644 0 13.841 6.198 13.841 13.843 0 8.285-6.716 15.001-15 15.001z" fill="#674e55"/><path d="m255.642 483.156v28.844h241.358c8.284 0 15-6.716 15-15.001 0-7.645-6.197-13.843-13.841-13.843z" fill="#433139"/></g></g><g><path d="m137.236 453.336c-3.839 0-7.678-1.464-10.606-4.394-5.858-5.858-5.858-15.356 0-21.215l106.805-106.814c5.858-5.859 15.356-5.858 21.213 0 5.858 5.858 5.858 15.357 0 21.215l-106.805 106.814c-2.929 2.929-6.768 4.394-10.607 4.394z" fill="#64a693"/><path d="m200.272 393.786c-20.425-1.356-31.946 10.039-32.954 24.946-1.009 14.908 8.877 27.683 29.302 29.039 14.361.954 30.606-11.361 38.987-18.757 3.351-2.957 3.696-8.074.772-11.454-7.31-8.452-21.748-22.821-36.107-23.774z" fill="#91d3aa"/><g><path d="m333.739 216.256-24.501 5.653-12.158 48.752 12.158 13.497 44.385-17.79 1.667-7.164 4.005-17.389c3.401-14.76-10.797-28.959-25.556-25.559z" fill="#de6d6e"/><g><g><path d="m312.533 263.036c19.761-4.542 41.533-.135 57.982 13.425l1.672 1.672c3.438 3.438 3.434 9.016-.008 12.458l-53.364 53.368c-21.059 21.061-53.197 23.686-79.516 6.44" fill="#c43d53"/><path d="m372.187 278.134-1.672-1.672c-16.448-13.56-38.221-17.967-57.982-13.425l-56.533 67.441v27.997c22.278 7.318 46.055 2.248 62.816-14.514l53.364-53.368c3.442-3.443 3.445-9.021.007-12.459z" fill="#ba2037"/></g><g><path d="m284.966 203.372-53.364 53.368c-24.068 24.07-24.092 63.07-.055 87.109 2.437 2.437 5.034 4.614 7.747 6.556l55.377-55.382c24.643-24.645 26.118-63.667 4.424-89.987l-1.672-1.673c-3.437-3.437-9.014-3.434-12.457.009z" fill="#de6d6e"/><path d="m299.096 205.036-1.672-1.673c-3.438-3.438-9.015-3.435-12.457.008l-28.967 28.97v101.358l38.672-38.676c24.643-24.644 26.118-63.667 4.424-89.987z" fill="#c43d53"/></g></g></g></g></g></svg>